<?xml version="1.0" encoding="utf-8"?>
<!-- Generator: Adobe Illustrator 24.1.2, SVG Export Plug-In . SVG Version: 6.00 Build 0)  -->
<svg version="1.1" id="Layer_1" xmlns="http://www.w3.org/2000/svg" xmlns:xlink="http://www.w3.org/1999/xlink" x="0px" y="0px"
	 viewBox="0 0 126 162" style="enable-background:new 0 0 126 162;" xml:space="preserve">
<polygon points="90,0 90,27 72,27 72,90 108,90 108,108 90,108 90,126 72,126 72,144 54,144 54,126 36,126 36,108 18,108 18,90 
	54,90 54,27 36,27 36,0 0,0 0,18 18,18 18,45 36,45 36,72 0,72 0,126 18,126 18,144 36,144 36,162 90,162 90,144 108,144 108,126 
	126,126 126,72 90,72 90,45 108,45 108,18 126,18 126,0 "/>
</svg>
