<svg id="Layer_1" data-name="Layer 1" xmlns="http://www.w3.org/2000/svg" xmlns:xlink="http://www.w3.org/1999/xlink" viewBox="0 0 499.39 20.57"><defs><style>.cls-1{fill:none;}.cls-2{clip-path:url(#clip-path);}.cls-3{fill:#fff;}.cls-4{clip-path:url(#clip-path-2);}.cls-5{clip-path:url(#clip-path-3);}.cls-6{clip-path:url(#clip-path-4);}.cls-7{clip-path:url(#clip-path-5);}.cls-8{clip-path:url(#clip-path-6);}.cls-9{clip-path:url(#clip-path-7);}.cls-10{clip-path:url(#clip-path-8);}.cls-11{clip-path:url(#clip-path-9);}.cls-12{clip-path:url(#clip-path-10);}.cls-13{clip-path:url(#clip-path-11);}.cls-14{clip-path:url(#clip-path-12);}.cls-15{clip-path:url(#clip-path-13);}.cls-16{clip-path:url(#clip-path-14);}.cls-17{clip-path:url(#clip-path-15);}.cls-18{clip-path:url(#clip-path-16);}.cls-19{clip-path:url(#clip-path-17);}.cls-20{clip-path:url(#clip-path-18);}.cls-21{clip-path:url(#clip-path-19);}</style><clipPath id="clip-path"><rect class="cls-1" x="446.83" width="16" height="20.57"/></clipPath><clipPath id="clip-path-2"><rect class="cls-1" x="420.54" width="16" height="20.57"/></clipPath><clipPath id="clip-path-3"><rect class="cls-1" x="394.26" width="16" height="20.57"/></clipPath><clipPath id="clip-path-4"><rect class="cls-1" x="367.97" width="16" height="20.57"/></clipPath><clipPath id="clip-path-5"><rect class="cls-1" x="341.69" width="16" height="20.57"/></clipPath><clipPath id="clip-path-6"><rect class="cls-1" x="315.41" width="16" height="20.57"/></clipPath><clipPath id="clip-path-7"><rect class="cls-1" x="289.12" width="16" height="20.57"/></clipPath><clipPath id="clip-path-8"><rect class="cls-1" x="262.84" width="16" height="20.57"/></clipPath><clipPath id="clip-path-9"><rect class="cls-1" x="236.56" width="16" height="20.57"/></clipPath><clipPath id="clip-path-10"><rect class="cls-1" x="210.27" width="16" height="20.57"/></clipPath><clipPath id="clip-path-11"><rect class="cls-1" x="183.99" width="16" height="20.57"/></clipPath><clipPath id="clip-path-12"><rect class="cls-1" x="157.7" width="16" height="20.57"/></clipPath><clipPath id="clip-path-13"><rect class="cls-1" x="131.42" width="16" height="20.57"/></clipPath><clipPath id="clip-path-14"><rect class="cls-1" x="105.14" width="16" height="20.57"/></clipPath><clipPath id="clip-path-15"><rect class="cls-1" x="78.85" width="16" height="20.57"/></clipPath><clipPath id="clip-path-16"><rect class="cls-1" x="52.57" width="16" height="20.57"/></clipPath><clipPath id="clip-path-17"><rect class="cls-1" x="26.28" width="16" height="20.57"/></clipPath><clipPath id="clip-path-18"><rect class="cls-1" width="16" height="20.57"/></clipPath><clipPath id="clip-path-19"><rect class="cls-1" x="473.11" width="16" height="20.57"/></clipPath></defs><g class="cls-2"><polygon class="cls-3" points="446.83 0 446.83 20.57 449.11 20.57 449.11 2.29 455.97 2.29 455.97 6.86 453.68 6.86 453.68 4.57 451.4 4.57 451.4 9.14 458.25 9.14 458.25 0 446.83 0"/><polygon class="cls-3" points="460.54 0 460.54 18.28 453.68 18.28 453.68 13.71 455.97 13.71 455.97 16 458.25 16 458.25 11.43 451.4 11.43 451.4 20.57 462.82 20.57 462.82 0 460.54 0"/></g><g class="cls-4"><path class="cls-3" d="M432,2.29h2.29V13.71H432ZM429.68,0V4.57H427.4V0h-6.86V11.43h4.57v2.28h-4.57v6.86h16V18.28H422.83V16h4.57V9.14h-4.57V2.29h2.28V6.86h4.57V16h6.86V0Z"/></g><g class="cls-5"><polygon class="cls-3" points="394.26 0 394.26 20.57 410.26 20.57 410.26 18.28 396.54 18.28 396.54 2.29 410.26 2.29 410.26 0 394.26 0"/><polygon class="cls-3" points="398.83 4.57 398.83 6.86 407.97 6.86 407.97 9.14 398.83 9.14 398.83 11.43 407.97 11.43 407.97 13.71 398.83 13.71 398.83 16 410.26 16 410.26 4.57 398.83 4.57"/></g><g class="cls-6"><path class="cls-3" d="M370.26,2.29h11.43V4.57H370.26ZM368,0V20.57h16V18.28H370.26V6.86h11.43V9.14h-9.14v2.29h9.14v2.28h-9.14V16H384V0Z"/></g><g class="cls-7"><path class="cls-3" d="M346.26,11.43h6.86V4.57h-6.86Zm4.57-2.29h-2.28V6.86h2.28Z"/><polygon class="cls-3" points="341.69 0 341.69 16 346.26 16 346.26 18.28 341.69 18.28 341.69 20.57 348.55 20.57 348.55 13.71 343.98 13.71 343.98 2.29 348.55 2.29 348.55 0 341.69 0"/><polygon class="cls-3" points="350.83 0 350.83 2.29 355.4 2.29 355.4 13.71 350.83 13.71 350.83 20.57 357.69 20.57 357.69 18.28 353.12 18.28 353.12 16 357.69 16 357.69 0 350.83 0"/></g><g class="cls-8"><path class="cls-3" d="M322.26,2.29h2.29V6.86h-2.29ZM320,0V9.14h2.28v2.29h-4.57V6.86h-2.28v6.85h6.85V16h-6.85v4.57h2.28V18.28h11.43v2.29h2.29V16h-6.86V13.71h6.86V6.86h-2.29v4.57h-4.57V9.14h2.28V0Z"/><rect class="cls-3" x="315.41" width="2.29" height="4.57"/><rect class="cls-3" x="329.12" width="2.29" height="4.57"/></g><g class="cls-9"><polygon class="cls-3" points="289.12 0 289.12 4.57 291.41 4.57 291.41 2.29 302.84 2.29 302.84 4.57 305.12 4.57 305.12 0 289.12 0"/><polygon class="cls-3" points="302.84 16 302.84 18.28 291.41 18.28 291.41 16 289.12 16 289.12 20.57 305.12 20.57 305.12 16 302.84 16"/><rect class="cls-3" x="289.12" y="6.86" width="2.29" height="6.86"/><rect class="cls-3" x="302.84" y="6.86" width="2.29" height="6.86"/><path class="cls-3" d="M293.69,16h6.86V4.57h-6.86Zm4.58-2.29H296V6.86h2.29Z"/></g><g class="cls-10"><path class="cls-3" d="M265.12,2.29H272V4.57h-6.86ZM262.84,0V6.86h11.43V4.57h2.28V2.29h-2.28V0Z"/><polygon class="cls-3" points="276.55 6.86 276.55 9.14 262.84 9.14 262.84 16 276.55 16 276.55 18.28 262.84 18.28 262.84 20.57 278.84 20.57 278.84 13.71 265.12 13.71 265.12 11.43 278.84 11.43 278.84 6.86 276.55 6.86"/></g><g class="cls-11"><path class="cls-3" d="M238.84,16h11.43v2.28H238.84Zm0-13.71h8V4.57h3.43V6.86h-3.43V9.14h-8ZM236.56,0V11.43h5.71v2.28h-5.71v6.86h16V13.71h-8V11.43h4.58V9.14h3.42V2.29h-3.42V0Z"/><rect class="cls-3" x="241.13" y="4.57" width="3.43" height="2.29"/></g><g class="cls-12"><polygon class="cls-3" points="215.82 6.86 221.7 6.86 221.7 4.57 214.84 4.57 214.84 6.86 215.82 6.86"/><polygon class="cls-3" points="215.82 11.43 221.7 11.43 221.7 9.14 214.84 9.14 214.84 11.43 215.82 11.43"/><polygon class="cls-3" points="215.82 16 221.7 16 221.7 13.71 214.84 13.71 214.84 16 215.82 16"/><polygon class="cls-3" points="223.98 4.57 223.98 18.28 210.27 18.28 210.27 20.57 226.27 20.57 226.27 4.57 223.98 4.57"/><polygon class="cls-3" points="210.27 0 210.27 16 212.56 16 212.56 2.29 226.27 2.29 226.27 0 210.27 0"/></g><g class="cls-13"><polygon class="cls-3" points="193.13 0 193.13 2.29 197.7 2.29 197.7 4.57 186.27 4.57 186.27 2.29 190.84 2.29 190.84 0 183.99 0 183.99 6.86 199.99 6.86 199.99 0 193.13 0"/><polygon class="cls-3" points="193.13 9.14 193.13 18.28 190.84 18.28 190.84 9.14 183.99 9.14 183.99 20.57 186.27 20.57 186.27 11.43 188.56 11.43 188.56 20.57 195.41 20.57 195.41 11.43 197.7 11.43 197.7 20.57 199.99 20.57 199.99 9.14 193.13 9.14"/></g><g class="cls-14"><polygon class="cls-3" points="157.7 0 157.7 11.43 169.13 11.43 169.13 4.57 162.27 4.57 162.27 6.86 166.85 6.86 166.85 9.14 159.99 9.14 159.99 2.29 171.42 2.29 171.42 18.28 159.99 18.28 159.99 16 169.13 16 169.13 13.71 157.7 13.71 157.7 20.57 173.7 20.57 173.7 0 157.7 0"/></g><g class="cls-15"><polygon class="cls-3" points="131.42 0 131.42 13.71 133.71 13.71 133.71 2.29 145.13 2.29 145.13 13.71 147.42 13.71 147.42 0 131.42 0"/><path class="cls-3" d="M138.28,6.86h2.28v6.85h-2.28ZM136,4.57V16h2.29v2.28h-4.57V16h-2.29v4.57h16V16h-2.29v2.28h-4.57V16h2.29V4.57Z"/></g><g class="cls-16"><path class="cls-3" d="M107.42,2.29h11.43V9.14H107.42ZM105.14,0V11.43h4.57v2.28h-4.57v6.86h2.28V16H112V11.43h2.29V16h4.57v4.57h2.28V13.71h-4.57V11.43h4.57V0Z"/><rect class="cls-3" x="109.71" y="4.57" width="6.86" height="2.29"/><rect class="cls-3" x="109.71" y="18.28" width="6.86" height="2.29"/></g><g class="cls-17"><path class="cls-3" d="M81.14,16H92.57v2.28H81.14Zm-2.29,4.57h16V13.71h-16Z"/><path class="cls-3" d="M81.14,2.29h2.28V9.14H81.14ZM78.85,0V11.43h16V9.14H85.71V2.29h9.14V0Z"/><rect class="cls-3" x="87.99" y="4.57" width="6.86" height="2.29"/></g><g class="cls-18"><polygon class="cls-3" points="57.14 0 57.14 2.29 66.28 2.29 66.28 20.57 68.57 20.57 68.57 0 57.14 0"/><path class="cls-3" d="M57.14,16H64V4.57H57.14Zm2.28-9.14h2.29v6.85H59.42Z"/><polygon class="cls-3" points="52.57 0 52.57 20.57 64 20.57 64 18.28 54.85 18.28 54.85 0 52.57 0"/></g><g class="cls-19"><polygon class="cls-3" points="26.28 0 26.28 6.86 28.57 6.86 28.57 2.29 40 2.29 40 9.14 26.28 9.14 26.28 20.57 42.28 20.57 42.28 13.71 40 13.71 40 18.28 28.57 18.28 28.57 11.43 42.28 11.43 42.28 0 26.28 0"/><rect class="cls-3" x="30.86" y="13.71" width="6.86" height="2.29"/><rect class="cls-3" x="30.86" y="4.57" width="6.86" height="2.29"/></g><g class="cls-20"><polygon class="cls-3" points="4.57 9.14 4.57 11.43 13.71 11.43 13.71 13.71 9.14 13.71 9.14 20.57 16 20.57 16 18.28 11.43 18.28 11.43 16 16 16 16 9.14 4.57 9.14"/><polygon class="cls-3" points="0 0 0 16 4.57 16 4.57 18.28 0 18.28 0 20.57 6.86 20.57 6.86 13.71 2.29 13.71 2.29 2.29 13.71 2.29 13.71 4.57 4.57 4.57 4.57 6.86 16 6.86 16 0 0 0"/></g><g class="cls-21"><polygon class="cls-3" points="479.97 13.71 479.97 18.28 473.11 18.28 473.11 20.57 489.11 20.57 489.11 18.28 482.25 18.28 482.25 13.71 479.97 13.71"/><path class="cls-3" d="M477.68,11.43h6.86V4.57h-6.86Zm4.57-2.29H480V6.86h2.28Z"/><polygon class="cls-3" points="473.11 0 473.11 16 477.68 16 477.68 13.71 475.4 13.71 475.4 2.29 486.82 2.29 486.82 13.71 484.54 13.71 484.54 16 489.11 16 489.11 0 473.11 0"/></g></svg>