<?xml version="1.0" encoding="utf-8"?>
<!-- Generator: Adobe Illustrator 24.1.2, SVG Export Plug-In . SVG Version: 6.00 Build 0)  -->
<svg version="1.1" id="Layer_1" xmlns="http://www.w3.org/2000/svg" xmlns:xlink="http://www.w3.org/1999/xlink" x="0px" y="0px"
	 viewBox="0 0 709.7 20.6" style="enable-background:new 0 0 709.7 20.6;" xml:space="preserve">
<style type="text/css">
	.st0{clip-path:url(#SVGID_2_);fill:#FFFFFF;}
	.st1{clip-path:url(#SVGID_4_);fill:#FFFFFF;}
	.st2{clip-path:url(#SVGID_6_);fill:#FFFFFF;}
	.st3{clip-path:url(#SVGID_8_);fill:#FFFFFF;}
	.st4{clip-path:url(#SVGID_10_);fill:#FFFFFF;}
	.st5{clip-path:url(#SVGID_12_);fill:#FFFFFF;}
	.st6{clip-path:url(#SVGID_14_);fill:#FFFFFF;}
	.st7{clip-path:url(#SVGID_16_);fill:#FFFFFF;}
	.st8{clip-path:url(#SVGID_18_);fill:#FFFFFF;}
	.st9{clip-path:url(#SVGID_20_);fill:#FFFFFF;}
	.st10{clip-path:url(#SVGID_22_);fill:#FFFFFF;}
	.st11{clip-path:url(#SVGID_24_);fill:#FFFFFF;}
	.st12{clip-path:url(#SVGID_26_);fill:#FFFFFF;}
	.st13{clip-path:url(#SVGID_28_);fill:#FFFFFF;}
	.st14{clip-path:url(#SVGID_30_);fill:#FFFFFF;}
	.st15{clip-path:url(#SVGID_32_);fill:#FFFFFF;}
	.st16{clip-path:url(#SVGID_34_);fill:#FFFFFF;}
	.st17{clip-path:url(#SVGID_36_);fill:#FFFFFF;}
	.st18{fill:#FFFFFF;}
	.st19{fill:none;}
</style>
<g>
	<defs>
		<rect id="SVGID_1_" x="604.5" width="16" height="20.6"/>
	</defs>
	<clipPath id="SVGID_2_">
		<use xlink:href="#SVGID_1_"  style="overflow:visible;"/>
	</clipPath>
	<polygon class="st0" points="604.5,0 604.5,20.6 606.8,20.6 606.8,2.3 613.7,2.3 613.7,6.9 611.4,6.9 611.4,4.6 609.1,4.6 
		609.1,9.1 616,9.1 616,0 	"/>
	<polygon class="st0" points="618.2,0 618.2,18.3 611.4,18.3 611.4,13.7 613.7,13.7 613.7,16 616,16 616,11.4 609.1,11.4 
		609.1,20.6 620.5,20.6 620.5,0 	"/>
</g>
<g>
	<defs>
		<rect id="SVGID_3_" x="578.2" width="16" height="20.6"/>
	</defs>
	<clipPath id="SVGID_4_">
		<use xlink:href="#SVGID_3_"  style="overflow:visible;"/>
	</clipPath>
	<path class="st1" d="M589.7,2.3h2.3v11.4h-2.3V2.3z M587.4,0v4.6h-2.3V0h-6.9v11.4h4.6v2.3h-4.6v6.9h16v-2.3h-13.7V16h4.6V9.1h-4.6
		V2.3h2.3v4.6h4.6V16h6.9V0H587.4z"/>
</g>
<g>
	<defs>
		<rect id="SVGID_5_" x="552" width="16" height="20.6"/>
	</defs>
	<clipPath id="SVGID_6_">
		<use xlink:href="#SVGID_5_"  style="overflow:visible;"/>
	</clipPath>
	<polygon class="st2" points="552,0 552,20.6 568,20.6 568,18.3 554.2,18.3 554.2,2.3 568,2.3 568,0 	"/>
	<polygon class="st2" points="556.5,4.6 556.5,6.9 565.7,6.9 565.7,9.1 556.5,9.1 556.5,11.4 565.7,11.4 565.7,13.7 556.5,13.7 
		556.5,16 568,16 568,4.6 	"/>
</g>
<g>
	<defs>
		<rect id="SVGID_7_" x="525.7" width="16" height="20.6"/>
	</defs>
	<clipPath id="SVGID_8_">
		<use xlink:href="#SVGID_7_"  style="overflow:visible;"/>
	</clipPath>
	<path class="st3" d="M528,2.3h11.4v2.3H528V2.3z M525.7,0v20.6h16v-2.3H528V6.9h11.4v2.3h-9.1v2.3h9.1v2.3h-9.1V16h11.4V0H525.7z"
		/>
</g>
<g>
	<defs>
		<rect id="SVGID_9_" x="499.4" width="16" height="20.6"/>
	</defs>
	<clipPath id="SVGID_10_">
		<use xlink:href="#SVGID_9_"  style="overflow:visible;"/>
	</clipPath>
	<path class="st4" d="M504,11.4h6.9V4.6H504V11.4z M508.5,9.1h-2.3V6.9h2.3V9.1z"/>
	<polygon class="st4" points="499.4,0 499.4,16 504,16 504,18.3 499.4,18.3 499.4,20.6 506.3,20.6 506.3,13.7 501.7,13.7 501.7,2.3 
		506.3,2.3 506.3,0 	"/>
	<polygon class="st4" points="508.5,0 508.5,2.3 513.1,2.3 513.1,13.7 508.5,13.7 508.5,20.6 515.4,20.6 515.4,18.3 510.8,18.3 
		510.8,16 515.4,16 515.4,0 	"/>
</g>
<g>
	<defs>
		<rect id="SVGID_11_" x="473.1" width="16" height="20.6"/>
	</defs>
	<clipPath id="SVGID_12_">
		<use xlink:href="#SVGID_11_"  style="overflow:visible;"/>
	</clipPath>
	<path class="st5" d="M480,2.3h2.3v4.6H480V2.3z M477.7,0v9.1h2.3v2.3h-4.6V6.9h-2.3v6.9h6.9V16h-6.9v4.6h2.3v-2.3h11.4v2.3h2.3V16
		h-6.9v-2.3h6.9V6.9h-2.3v4.6h-4.6V9.1h2.3V0H477.7z"/>
	<rect x="473.1" class="st5" width="2.3" height="4.6"/>
	<rect x="486.8" class="st5" width="2.3" height="4.6"/>
</g>
<g>
	<defs>
		<rect id="SVGID_13_" x="368" width="16" height="20.6"/>
	</defs>
	<clipPath id="SVGID_14_">
		<use xlink:href="#SVGID_13_"  style="overflow:visible;"/>
	</clipPath>
	<polygon class="st6" points="368,0 368,4.6 370.3,4.6 370.3,2.3 381.7,2.3 381.7,4.6 384,4.6 384,0 	"/>
	<polygon class="st6" points="381.7,16 381.7,18.3 370.3,18.3 370.3,16 368,16 368,20.6 384,20.6 384,16 	"/>
	<rect x="368" y="6.9" class="st6" width="2.3" height="6.9"/>
	<rect x="381.7" y="6.9" class="st6" width="2.3" height="6.9"/>
	<path class="st6" d="M372.5,16h6.9V4.6h-6.9V16z M377.1,13.7h-2.3V6.9h2.3V13.7z"/>
</g>
<g>
	<defs>
		<rect id="SVGID_15_" x="341.7" width="16" height="20.6"/>
	</defs>
	<clipPath id="SVGID_16_">
		<use xlink:href="#SVGID_15_"  style="overflow:visible;"/>
	</clipPath>
	<path class="st7" d="M344,2.3h6.9v2.3H344V2.3z M341.7,0v6.9h11.4V4.6h2.3V2.3h-2.3V0H341.7z"/>
	<polygon class="st7" points="355.4,6.9 355.4,9.1 341.7,9.1 341.7,16 355.4,16 355.4,18.3 341.7,18.3 341.7,20.6 357.7,20.6 
		357.7,13.7 344,13.7 344,11.4 357.7,11.4 357.7,6.9 	"/>
</g>
<g>
	<defs>
		<rect id="SVGID_17_" x="315.4" width="16" height="20.6"/>
	</defs>
	<clipPath id="SVGID_18_">
		<use xlink:href="#SVGID_17_"  style="overflow:visible;"/>
	</clipPath>
	<path class="st8" d="M317.7,16h11.4v2.3h-11.4V16z M317.7,2.3h8v2.3h3.4v2.3h-3.4v2.3h-8V2.3z M315.4,0v11.4h5.7v2.3h-5.7v6.9h16
		v-6.9h-8v-2.3h4.6V9.1h3.4V2.3H328V0H315.4z"/>
	<rect x="320" y="4.6" class="st8" width="3.4" height="2.3"/>
</g>
<g>
	<defs>
		<rect id="SVGID_19_" x="289.1" width="16" height="20.6"/>
	</defs>
	<clipPath id="SVGID_20_">
		<use xlink:href="#SVGID_19_"  style="overflow:visible;"/>
	</clipPath>
	<polygon class="st9" points="294.7,6.9 300.6,6.9 300.6,4.6 293.7,4.6 293.7,6.9 	"/>
	<polygon class="st9" points="294.7,11.4 300.6,11.4 300.6,9.1 293.7,9.1 293.7,11.4 	"/>
	<polygon class="st9" points="294.7,16 300.6,16 300.6,13.7 293.7,13.7 293.7,16 	"/>
	<polygon class="st9" points="302.8,4.6 302.8,18.3 289.1,18.3 289.1,20.6 305.1,20.6 305.1,4.6 	"/>
	<polygon class="st9" points="289.1,0 289.1,16 291.4,16 291.4,2.3 305.1,2.3 305.1,0 	"/>
</g>
<g>
	<defs>
		<rect id="SVGID_21_" x="262.8" width="16" height="20.6"/>
	</defs>
	<clipPath id="SVGID_22_">
		<use xlink:href="#SVGID_21_"  style="overflow:visible;"/>
	</clipPath>
	<polygon class="st10" points="272,0 272,2.3 276.6,2.3 276.6,4.6 265.1,4.6 265.1,2.3 269.7,2.3 269.7,0 262.8,0 262.8,6.9 
		278.8,6.9 278.8,0 	"/>
	<polygon class="st10" points="272,9.1 272,18.3 269.7,18.3 269.7,9.1 262.8,9.1 262.8,20.6 265.1,20.6 265.1,11.4 267.4,11.4 
		267.4,20.6 274.3,20.6 274.3,11.4 276.6,11.4 276.6,20.6 278.8,20.6 278.8,9.1 	"/>
</g>
<g>
	<defs>
		<rect id="SVGID_23_" x="236.6" width="16" height="20.6"/>
	</defs>
	<clipPath id="SVGID_24_">
		<use xlink:href="#SVGID_23_"  style="overflow:visible;"/>
	</clipPath>
	<polygon class="st11" points="236.6,0 236.6,11.4 248,11.4 248,4.6 241.1,4.6 241.1,6.9 245.7,6.9 245.7,9.1 238.8,9.1 238.8,2.3 
		250.3,2.3 250.3,18.3 238.8,18.3 238.8,16 248,16 248,13.7 236.6,13.7 236.6,20.6 252.6,20.6 252.6,0 	"/>
</g>
<g>
	<defs>
		<rect id="SVGID_25_" x="131.4" width="16" height="20.6"/>
	</defs>
	<clipPath id="SVGID_26_">
		<use xlink:href="#SVGID_25_"  style="overflow:visible;"/>
	</clipPath>
	<polygon class="st12" points="131.4,0 131.4,13.7 133.7,13.7 133.7,2.3 145.1,2.3 145.1,13.7 147.4,13.7 147.4,0 	"/>
	<path class="st12" d="M138.3,6.9h2.3v6.9h-2.3V6.9z M136,4.6V16h2.3v2.3h-4.6V16h-2.3v4.6h16V16h-2.3v2.3h-4.6V16h2.3V4.6H136z"/>
</g>
<g>
	<defs>
		<rect id="SVGID_27_" x="105.1" width="16" height="20.6"/>
	</defs>
	<clipPath id="SVGID_28_">
		<use xlink:href="#SVGID_27_"  style="overflow:visible;"/>
	</clipPath>
	<path class="st13" d="M107.4,2.3h11.4v6.9h-11.4V2.3z M105.1,0v11.4h4.6v2.3h-4.6v6.9h2.3V16h4.6v-4.6h2.3V16h4.6v4.6h2.3v-6.9
		h-4.6v-2.3h4.6V0H105.1z"/>
	<rect x="109.7" y="4.6" class="st13" width="6.9" height="2.3"/>
	<rect x="109.7" y="18.3" class="st13" width="6.9" height="2.3"/>
</g>
<g>
	<defs>
		<rect id="SVGID_29_" x="78.9" width="16" height="20.6"/>
	</defs>
	<clipPath id="SVGID_30_">
		<use xlink:href="#SVGID_29_"  style="overflow:visible;"/>
	</clipPath>
	<path class="st14" d="M81.1,16h11.4v2.3H81.1V16z M78.9,20.6h16v-6.9h-16V20.6z"/>
	<path class="st14" d="M81.1,2.3h2.3v6.9h-2.3V2.3z M78.9,0v11.4h16V9.1h-9.1V2.3h9.1V0H78.9z"/>
	<rect x="88" y="4.6" class="st14" width="6.9" height="2.3"/>
</g>
<g>
	<defs>
		<rect id="SVGID_31_" x="52.6" width="16" height="20.6"/>
	</defs>
	<clipPath id="SVGID_32_">
		<use xlink:href="#SVGID_31_"  style="overflow:visible;"/>
	</clipPath>
	<polygon class="st15" points="57.1,0 57.1,2.3 66.3,2.3 66.3,20.6 68.6,20.6 68.6,0 	"/>
	<path class="st15" d="M57.1,16H64V4.6h-6.9V16z M59.4,6.9h2.3v6.9h-2.3V6.9z"/>
	<polygon class="st15" points="52.6,0 52.6,20.6 64,20.6 64,18.3 54.9,18.3 54.9,0 	"/>
</g>
<g>
	<defs>
		<rect id="SVGID_33_" x="26.3" width="16" height="20.6"/>
	</defs>
	<clipPath id="SVGID_34_">
		<use xlink:href="#SVGID_33_"  style="overflow:visible;"/>
	</clipPath>
	<polygon class="st16" points="26.3,0 26.3,6.9 28.6,6.9 28.6,2.3 40,2.3 40,9.1 26.3,9.1 26.3,20.6 42.3,20.6 42.3,13.7 40,13.7 
		40,18.3 28.6,18.3 28.6,11.4 42.3,11.4 42.3,0 	"/>
	<rect x="30.9" y="13.7" class="st16" width="6.9" height="2.3"/>
	<rect x="30.9" y="4.6" class="st16" width="6.9" height="2.3"/>
</g>
<g>
	<defs>
		<rect id="SVGID_35_" width="16" height="20.6"/>
	</defs>
	<clipPath id="SVGID_36_">
		<use xlink:href="#SVGID_35_"  style="overflow:visible;"/>
	</clipPath>
	<polygon class="st17" points="4.6,9.1 4.6,11.4 13.7,11.4 13.7,13.7 9.1,13.7 9.1,20.6 16,20.6 16,18.3 11.4,18.3 11.4,16 16,16 
		16,9.1 	"/>
	<polygon class="st17" points="0,0 0,16 4.6,16 4.6,18.3 0,18.3 0,20.6 6.9,20.6 6.9,13.7 2.3,13.7 2.3,2.3 13.7,2.3 13.7,4.6 
		4.6,4.6 4.6,6.9 16,6.9 16,0 	"/>
</g>
<g>
	<g>
		<path class="st18" d="M170.3,14h-6.1c-0.5,0-1,0-1.6,0.1c-0.6,0.1-0.6-0.2,0.5-1.5c3.6-4.4,4.9-6.4,8.2-11.8
			c0.2-0.4,0.4-0.6,0.8-0.7c1-0.3,1.5,0,1.2,0.7c-0.4,0.8-1.1,1.4-1.1,2.6v9.1h2.2c2.2,0,3.5-1,3.8-3.3l0.2-1.1c0-0.2,0.3-0.2,0.3,0
			l-0.2,1.1c-0.3,2.2-0.7,4.4-0.8,4.6c-0.1,0.1-0.7,0.1-1.6,0.1h-3.9v2.5c0,3.3,0,3.4,2.8,3.4c0.2,0,0.2,0.3,0,0.3
			c-0.8,0-3.3-0.1-3.7-0.1s-3.4,0.1-4.3,0.1c-0.2,0-0.2-0.3,0-0.3c3.1-0.1,3.3-0.1,3.3-3.4V14z M170.3,12.5V4.4
			c-2.3,2.8-3.8,4.6-6.7,8.1H170.3z"/>
		<path class="st18" d="M183.7,10.6c0-4.4,1.6-6.9,3.6-8.4c1.1-0.8,3.5-1.9,5.2-1.9c5.8,0,8.2,3.5,8.2,9.9c0,4.2-2.2,7.4-3.9,8.6
			c-1.1,0.8-2.9,1.6-4.8,1.6C186.6,20.5,183.7,17.4,183.7,10.6z M187.5,2.3c-1.1,1.2-1.7,3.5-1.7,8c0,5.6,2.3,9.1,7.2,9.1
			c1.4,0,2.9-0.3,3.7-0.7c1.6-1.7,2-4.5,2-8.3c0-5.8-2.2-9-6.9-9C190.1,1.4,188.6,1.7,187.5,2.3z"/>
		<path class="st18" d="M213.5,14h-6.1c-0.5,0-1,0-1.6,0.1c-0.6,0.1-0.6-0.2,0.5-1.5c3.6-4.4,4.9-6.4,8.2-11.8
			c0.2-0.4,0.4-0.6,0.8-0.7c1-0.3,1.5,0,1.2,0.7c-0.4,0.8-1.1,1.4-1.1,2.6v9.1h2.2c2.2,0,3.5-1,3.8-3.3l0.2-1.1c0-0.2,0.3-0.2,0.3,0
			l-0.2,1.1c-0.3,2.2-0.7,4.4-0.8,4.6c-0.1,0.1-0.7,0.1-1.6,0.1h-3.9v2.5c0,3.3,0,3.4,2.8,3.4c0.2,0,0.2,0.3,0,0.3
			c-0.8,0-3.3-0.1-3.7-0.1c-0.4,0-3.4,0.1-4.3,0.1c-0.2,0-0.2-0.3,0-0.3c3.1-0.1,3.3-0.1,3.3-3.4V14z M213.5,12.5V4.4
			c-2.3,2.8-3.8,4.6-6.7,8.1H213.5z"/>
	</g>
	<rect x="157.7" class="st19" width="68.6" height="20.6"/>
</g>
<g>
	<g>
		<path class="st18" d="M643.4,14h-6.1c-0.5,0-1,0-1.6,0.1c-0.6,0.1-0.6-0.2,0.5-1.5c3.6-4.4,4.9-6.4,8.2-11.8
			c0.2-0.4,0.4-0.6,0.8-0.7c1-0.3,1.5,0,1.2,0.7c-0.4,0.8-1.1,1.4-1.1,2.6v9.1h2.2c2.2,0,3.5-1,3.8-3.3l0.2-1.1c0-0.2,0.3-0.2,0.3,0
			l-0.2,1.1c-0.3,2.2-0.7,4.4-0.8,4.6c-0.1,0.1-0.7,0.1-1.6,0.1h-3.9v2.5c0,3.3,0,3.4,2.8,3.4c0.2,0,0.2,0.3,0,0.3
			c-0.8,0-3.3-0.1-3.7-0.1c-0.4,0-3.4,0.1-4.3,0.1c-0.2,0-0.2-0.3,0-0.3c3.1-0.1,3.3-0.1,3.3-3.4V14z M643.4,12.5V4.4
			c-2.3,2.8-3.8,4.6-6.7,8.1H643.4z"/>
		<path class="st18" d="M656.8,10.6c0-4.4,1.6-6.9,3.6-8.4c1.1-0.8,3.5-1.9,5.2-1.9c5.8,0,8.2,3.5,8.2,9.9c0,4.2-2.2,7.4-3.9,8.6
			c-1.1,0.8-2.9,1.6-4.8,1.6C659.7,20.5,656.8,17.4,656.8,10.6z M660.6,2.3c-1.1,1.2-1.7,3.5-1.7,8c0,5.6,2.3,9.1,7.2,9.1
			c1.4,0,2.9-0.3,3.7-0.7c1.6-1.7,2-4.5,2-8.3c0-5.8-2.2-9-6.9-9C663.3,1.4,661.7,1.7,660.6,2.3z"/>
		<path class="st18" d="M686.6,14h-6.1c-0.5,0-1,0-1.6,0.1c-0.6,0.1-0.6-0.2,0.5-1.5c3.6-4.4,4.9-6.4,8.2-11.8
			c0.2-0.4,0.4-0.6,0.8-0.7c1-0.3,1.5,0,1.2,0.7c-0.4,0.8-1.1,1.4-1.1,2.6v9.1h2.2c2.2,0,3.5-1,3.8-3.3l0.2-1.1c0-0.2,0.3-0.2,0.3,0
			l-0.2,1.1c-0.3,2.2-0.7,4.4-0.8,4.6c-0.1,0.1-0.7,0.1-1.6,0.1h-3.9v2.5c0,3.3,0,3.4,2.8,3.4c0.2,0,0.2,0.3,0,0.3
			c-0.8,0-3.3-0.1-3.7-0.1c-0.4,0-3.4,0.1-4.3,0.1c-0.2,0-0.2-0.3,0-0.3c3.1-0.1,3.3-0.1,3.3-3.4V14z M686.6,12.5V4.4
			c-2.3,2.8-3.8,4.6-6.7,8.1H686.6z"/>
	</g>
	<rect x="630.8" class="st19" width="68.6" height="20.6"/>
</g>
<g>
	<g>
		<path class="st18" d="M406.8,14h-6.1c-0.5,0-1,0-1.6,0.1c-0.6,0.1-0.6-0.2,0.5-1.5c3.6-4.4,4.9-6.4,8.2-11.8
			c0.2-0.4,0.4-0.6,0.8-0.7c1-0.3,1.5,0,1.2,0.7c-0.4,0.8-1.1,1.4-1.1,2.6v9.1h2.2c2.2,0,3.5-1,3.8-3.3l0.2-1.1c0-0.2,0.3-0.2,0.3,0
			l-0.2,1.1c-0.3,2.2-0.7,4.4-0.8,4.6c-0.1,0.1-0.7,0.1-1.6,0.1h-3.9v2.5c0,3.3,0,3.4,2.8,3.4c0.2,0,0.2,0.3,0,0.3
			c-0.8,0-3.3-0.1-3.7-0.1s-3.4,0.1-4.3,0.1c-0.2,0-0.2-0.3,0-0.3c3.1-0.1,3.3-0.1,3.3-3.4V14z M406.8,12.5V4.4
			c-2.3,2.8-3.8,4.6-6.7,8.1H406.8z"/>
		<path class="st18" d="M420.3,10.6c0-4.4,1.6-6.9,3.6-8.4c1.1-0.8,3.5-1.9,5.2-1.9c5.8,0,8.2,3.5,8.2,9.9c0,4.2-2.2,7.4-3.9,8.6
			c-1.1,0.8-2.9,1.6-4.8,1.6C423.2,20.5,420.3,17.4,420.3,10.6z M424,2.3c-1.1,1.2-1.7,3.5-1.7,8c0,5.6,2.3,9.1,7.2,9.1
			c1.4,0,2.9-0.3,3.7-0.7c1.6-1.7,2-4.5,2-8.3c0-5.8-2.2-9-6.9-9C426.7,1.4,425.1,1.7,424,2.3z"/>
		<path class="st18" d="M450,14H444c-0.5,0-1,0-1.6,0.1c-0.6,0.1-0.6-0.2,0.5-1.5c3.6-4.4,4.9-6.4,8.2-11.8c0.2-0.4,0.4-0.6,0.8-0.7
			c1-0.3,1.5,0,1.2,0.7c-0.4,0.8-1.1,1.4-1.1,2.6v9.1h2.2c2.2,0,3.5-1,3.8-3.3l0.2-1.1c0-0.2,0.3-0.2,0.3,0l-0.2,1.1
			c-0.3,2.2-0.7,4.4-0.8,4.6c-0.1,0.1-0.7,0.1-1.6,0.1h-3.9v2.5c0,3.3,0,3.4,2.8,3.4c0.2,0,0.2,0.3,0,0.3c-0.8,0-3.3-0.1-3.7-0.1
			s-3.4,0.1-4.3,0.1c-0.2,0-0.2-0.3,0-0.3c3.1-0.1,3.3-0.1,3.3-3.4V14z M450,12.5V4.4c-2.3,2.8-3.8,4.6-6.7,8.1H450z"/>
	</g>
	<rect x="394.3" class="st19" width="68.6" height="20.6"/>
</g>
</svg>
